<svg width="57" height="50" viewBox="0 0 57 50" fill="none" xmlns="http://www.w3.org/2000/svg">
<path d="M19.8409 38.3871C30.0746 38.3871 38.5144 29.9486 38.5144 19.7308C38.5144 9.51171 30.0562 1.0744 19.8239 1.0744C9.60543 1.0744 1.18457 9.51484 1.18457 19.7308C1.18457 29.948 9.62376 38.3871 19.8409 38.3871ZM14.6841 17.0573C14.2922 17.0573 13.7545 16.6879 13.7545 15.8204C13.7545 14.9188 14.2922 14.5664 14.6841 14.5664C15.0641 14.5664 15.6136 14.9248 15.6136 15.8204C15.6136 16.6819 15.0641 17.0573 14.6841 17.0573ZM25.0661 17.0573C24.685 17.0573 24.1536 16.7001 24.1536 15.8204C24.1536 14.9066 24.685 14.5664 25.0661 14.5664C25.4569 14.5664 26.0128 14.9367 26.0128 15.8204C26.0128 16.67 25.4569 17.0573 25.0661 17.0573ZM15.8732 26.2264C15.7433 26.1347 15.6227 26.0418 15.5116 25.9489C16.6086 26.4034 17.9731 26.7756 19.8239 26.7756C21.6966 26.7756 23.0708 26.3912 24.1689 25.9346C24.0531 26.032 23.9269 26.1297 23.7902 26.2259C22.8471 26.8901 21.479 27.4394 19.8239 27.4394C18.1782 27.4394 16.8146 26.8907 15.8732 26.2264Z" fill="#6791EC" stroke="#1B1B1B" stroke-width="2"/>
<path d="M37.3265 48.1014C47.5602 48.1014 56 39.6628 56 29.445C56 19.2259 47.5418 10.7886 37.3095 10.7886C27.091 10.7886 18.6702 19.2291 18.6702 29.445C18.6702 39.6622 27.1094 48.1014 37.3265 48.1014ZM32.1696 26.7716C31.7778 26.7716 31.2401 26.4021 31.2401 25.5346C31.2401 24.633 31.7778 24.2806 32.1696 24.2806C32.5497 24.2806 33.0992 24.639 33.0992 25.5346C33.0992 26.3961 32.5497 26.7716 32.1696 26.7716ZM42.5517 26.7716C42.1706 26.7716 41.6392 26.4143 41.6392 25.5346C41.6392 24.6208 42.1706 24.2806 42.5517 24.2806C42.9424 24.2806 43.4984 24.651 43.4984 25.5346C43.4984 26.3842 42.9424 26.7716 42.5517 26.7716ZM33.3588 35.9407C33.2289 35.849 33.1083 35.756 32.9972 35.6631C34.0942 36.1177 35.4587 36.4898 37.3095 36.4898C39.1822 36.4898 40.5564 36.1054 41.6545 35.6488C41.5387 35.7463 41.4125 35.8439 41.2758 35.9401C40.3327 36.6043 38.9646 37.1537 37.3095 37.1537C35.6638 37.1537 34.3002 36.6049 33.3588 35.9407Z" fill="#6791EC" stroke="#1B1B1B" stroke-width="2"/>
<circle cx="32.5" cy="25.5" r="1.5" fill="#1B1B1B"/>
</svg>
