<svg width="92" height="71" viewBox="0 0 92 71" fill="none" xmlns="http://www.w3.org/2000/svg">
<path d="M77.7599 6.44121C71.9244 3.74259 65.6667 1.75436 59.1239 0.615617C59.0047 0.593639 58.8857 0.648562 58.8243 0.75841C58.0195 2.20105 57.1281 4.0831 56.5038 5.56238C49.4666 4.50055 42.4655 4.50055 35.5726 5.56238C34.9482 4.05022 34.0244 2.20105 33.216 0.75841C33.1546 0.652227 33.0356 0.597304 32.9164 0.615617C26.3772 1.75072 20.1195 3.73895 14.2804 6.44121C14.2298 6.46318 14.1865 6.49983 14.1578 6.5474C2.28823 24.4196 -0.963332 41.8526 0.631776 59.0694C0.638993 59.1536 0.685908 59.2342 0.750868 59.2854C8.58205 65.0816 16.1679 68.6005 23.6129 70.9329C23.732 70.9695 23.8582 70.9256 23.9341 70.8267C25.6952 68.4028 27.2651 65.847 28.6111 63.1593C28.6905 63.0019 28.6147 62.8151 28.4523 62.7529C25.9622 61.8009 23.5912 60.6401 21.3104 59.322C21.13 59.2158 21.1155 58.9558 21.2815 58.8313C21.7615 58.4688 22.2416 58.0916 22.6999 57.7108C22.7828 57.6413 22.8983 57.6266 22.9958 57.6705C37.9796 64.5654 54.2014 64.5654 69.0084 57.6705C69.1059 57.623 69.2214 57.6377 69.308 57.7072C69.7664 58.088 70.2464 58.4688 70.7299 58.8313C70.8959 58.9558 70.8851 59.2158 70.7047 59.322C68.4239 60.6658 66.0528 61.8009 63.5591 62.7492C63.3968 62.8115 63.3245 63.0019 63.404 63.1593C64.7789 65.8432 66.3487 68.399 68.0774 70.823C68.1496 70.9256 68.2794 70.9695 68.3986 70.9329C75.8797 68.6005 83.4654 65.0816 91.2966 59.2854C91.3652 59.2342 91.4085 59.1572 91.4158 59.073C93.3248 39.1685 88.2183 21.8785 77.8789 6.55104C77.8537 6.49983 77.8105 6.46318 77.7599 6.44121ZM30.8487 48.5861C26.3375 48.5861 22.6204 44.412 22.6204 39.2857C22.6204 34.1595 26.2654 29.9853 30.8487 29.9853C35.4679 29.9853 39.149 34.1961 39.0768 39.2857C39.0768 44.412 35.4318 48.5861 30.8487 48.5861ZM61.2711 48.5861C56.7601 48.5861 53.043 44.412 53.043 39.2857C53.043 34.1595 56.6879 29.9853 61.2711 29.9853C65.8904 29.9853 69.5714 34.1961 69.4993 39.2857C69.4993 44.412 65.8904 48.5861 61.2711 48.5861Z" fill="#6791EC"/>
</svg>
