<svg width="64" height="64" viewBox="0 0 64 64" fill="none" xmlns="http://www.w3.org/2000/svg">
<path d="M30.1719 52.5848H33.8482C35.0536 52.5848 35.9576 51.8616 36.2188 50.6763L37.2232 46.4375C37.9063 46.1964 38.5491 45.9353 39.1518 45.654L42.8683 47.9442C43.8527 48.567 45.0379 48.4665 45.8616 47.6429L48.4531 45.0513C49.2768 44.2277 49.3973 43.0022 48.7344 41.9978L46.4643 38.3214C46.7455 37.7188 47.0067 37.0759 47.2076 36.4531L51.4866 35.4487C52.6719 35.1875 53.375 34.2835 53.375 33.0781V29.4621C53.375 28.2768 52.6719 27.3527 51.4866 27.0915L47.2478 26.067C47.0268 25.3638 46.7455 24.7411 46.5045 24.1987L48.7746 20.442C49.4174 19.4174 49.3371 18.2723 48.4732 17.4286L45.8616 14.8371C45.0179 14.0737 43.9531 13.933 42.9286 14.4955L39.1518 16.8259C38.5692 16.5446 37.9263 16.2835 37.2433 16.0424L36.2188 11.7433C35.9576 10.558 35.0536 9.83482 33.8482 9.83482H30.1719C28.9464 9.83482 28.0424 10.558 27.7812 11.7433L26.7768 16.0223C26.0938 16.2433 25.4308 16.5045 24.8281 16.8058L21.0714 14.4955C20.0469 13.933 19.0022 14.0536 18.1384 14.8371L15.5268 17.4286C14.6629 18.2723 14.5826 19.4174 15.2254 20.442L17.4955 24.1987C17.2545 24.7411 16.9933 25.3638 16.7522 26.067L12.5134 27.0915C11.3281 27.3527 10.625 28.2768 10.625 29.4621V33.0781C10.625 34.2835 11.3281 35.1875 12.5134 35.4487L16.7924 36.4531C16.9933 37.0759 17.2545 37.7188 17.5357 38.3214L15.2656 41.9978C14.6027 43.0022 14.7232 44.2277 15.567 45.0513L18.1384 47.6429C18.9621 48.4665 20.1473 48.567 21.1518 47.9442L24.8482 45.654C25.4509 45.9353 26.0938 46.1964 26.7768 46.4375L27.7812 50.6763C28.0424 51.8616 28.9464 52.5848 30.1719 52.5848ZM32 38.2411C28.1429 38.2411 24.9888 35.067 24.9888 31.1897C24.9888 27.3527 28.1429 24.1987 32 24.1987C35.8772 24.1987 39.0313 27.3527 39.0313 31.1897C39.0313 35.067 35.8772 38.2411 32 38.2411Z" fill="#6791EC"/>
</svg>
