<svg width="65" height="63" viewBox="0 0 65 63" fill="none" xmlns="http://www.w3.org/2000/svg">
<path fill-rule="evenodd" clip-rule="evenodd" d="M32.2509 0.248918C24.5947 0.241185 17.1859 2.94308 11.3523 7.87042C5.5187 12.7977 1.64157 19.6284 0.415722 27.1384C-0.810131 34.6483 0.695423 42.3466 4.66258 48.8537C8.62974 55.3607 14.7992 60.2512 22.0653 62.6488C23.6673 62.9436 24.2606 61.9412 24.2606 61.0961C24.2606 60.251 24.2606 58.325 24.2606 55.6521C15.3013 57.6175 13.4026 51.3677 13.4026 51.3677C12.8151 49.4259 11.5445 47.7588 9.82283 46.6705C6.9155 44.7051 10.0602 44.7051 10.0602 44.7051C11.0793 44.8482 12.0523 45.2198 12.9056 45.7918C13.7588 46.3639 14.4698 47.1214 14.9848 48.0069C15.4225 48.7954 16.0124 49.4903 16.7209 50.0516C17.4295 50.613 18.2425 51.0298 19.1135 51.2781C19.9846 51.5265 20.8963 51.6015 21.7966 51.4988C22.6968 51.3961 23.5678 51.1178 24.3595 50.6798C24.4837 49.063 25.1851 47.5435 26.3373 46.3953C19.1777 45.5895 11.6622 42.838 11.6622 30.5743C11.6449 27.3895 12.8632 24.3206 15.064 22.0053C14.0977 19.2421 14.2107 16.2191 15.3804 13.5347C15.3804 13.5347 18.09 12.6699 24.2409 16.8168C29.5227 15.3757 35.0977 15.3757 40.3796 16.8168C46.5305 12.6699 49.2202 13.5347 49.2202 13.5347C50.4022 16.2153 50.5223 19.2405 49.5565 22.0053C51.7259 24.3408 52.9085 27.4159 52.8594 30.5939C52.8594 42.897 45.324 45.5895 38.1447 46.3167C38.9145 47.0857 39.5089 48.0102 39.8877 49.0274C40.2665 50.0447 40.4207 51.1311 40.34 52.2128C40.34 56.4972 40.34 59.9562 40.34 60.9979C40.34 62.0395 40.9136 62.8453 42.5551 62.5308C49.7445 60.0676 55.8254 55.1566 59.7216 48.6668C63.6179 42.1771 65.0783 34.5269 63.8446 27.0701C62.6109 19.6132 58.7626 12.8304 52.9805 7.92178C47.1985 3.01318 39.8555 0.295246 32.2509 0.248918Z" fill="#6791EC"/>
</svg>
