<svg width="71" height="63" viewBox="0 0 71 63" fill="none" xmlns="http://www.w3.org/2000/svg">
<path d="M70.1621 31.9622C70.1568 30.4621 69.7119 28.9965 68.8825 27.7475C68.0531 26.4986 66.8759 25.5212 65.497 24.9368C64.118 24.3524 62.5981 24.1867 61.1261 24.4604C59.654 24.734 58.2945 25.4348 57.2165 26.4759C51.9914 22.6982 44.795 20.2607 36.7774 19.9785L40.2582 3.56656L51.6394 5.98838C51.7009 7.32288 52.2462 8.58904 53.1731 9.54933C54.1 10.5096 55.3448 11.098 56.6738 11.2042C58.0029 11.3104 59.325 10.927 60.392 10.126C61.459 9.32502 62.1977 8.16144 62.4695 6.85357C62.7413 5.54569 62.5275 4.18339 61.8681 3.02224C61.2088 1.86108 60.1494 0.980861 58.8884 0.546705C57.6275 0.112549 56.2519 0.154291 55.0195 0.6641C53.7871 1.17391 52.7827 2.11675 52.1947 3.31575L39.5073 0.611776C39.3326 0.573741 39.1521 0.570783 38.9762 0.603069C38.8003 0.635356 38.6325 0.702248 38.4826 0.79988C38.179 0.997718 37.9654 1.30747 37.8881 1.66202L33.9771 19.9785C25.8656 20.2058 18.5363 22.6198 13.2642 26.4759C12.4559 25.7237 11.4945 25.1559 10.4462 24.8117C9.39784 24.4674 8.28753 24.3549 7.19166 24.4819C6.09579 24.6089 5.04041 24.9724 4.09818 25.5472C3.15594 26.1221 2.34924 26.8948 1.73362 27.812C1.118 28.7292 0.708086 29.7693 0.532099 30.8605C0.356111 31.9517 0.418231 33.0681 0.714185 34.133C1.01014 35.1978 1.5329 36.1857 2.24646 37.0287C2.96002 37.8717 3.84744 38.5497 4.84761 39.0161C4.72689 39.794 4.66674 40.5801 4.6677 41.3674C4.6677 53.1238 18.3564 62.7014 35.2364 62.7014C52.1165 62.7014 65.813 53.1473 65.813 41.3674C65.812 40.5958 65.7519 39.8255 65.6331 39.0631C66.9984 38.4531 68.1552 37.4552 68.9602 36.1931C69.7652 34.931 70.183 33.46 70.1621 31.9622ZM17.7541 37.4486C17.7541 36.3635 18.0752 35.3028 18.6768 34.4005C19.2785 33.4983 20.1336 32.7951 21.1342 32.3799C22.1347 31.9646 23.2356 31.856 24.2977 32.0677C25.3599 32.2794 26.3355 32.8019 27.1013 33.5692C27.867 34.3364 28.3885 35.314 28.5998 36.3783C28.8111 37.4425 28.7026 38.5456 28.2882 39.5481C27.8738 40.5506 27.172 41.4075 26.2715 42.0103C25.3711 42.6131 24.3125 42.9349 23.2295 42.9349C21.7773 42.9349 20.3846 42.3569 19.3578 41.328C18.3309 40.2991 17.7541 38.9036 17.7541 37.4486ZM48.2602 51.8933C44.5291 55.6162 37.3953 55.9062 35.2912 55.9062C33.187 55.9062 26.0533 55.6162 22.33 51.8933C22.1985 51.7616 22.0942 51.6052 22.023 51.433C21.9519 51.2609 21.9153 51.0764 21.9153 50.8901C21.9153 50.7038 21.9519 50.5193 22.023 50.3472C22.0942 50.175 22.1985 50.0186 22.33 49.8869C22.4615 49.7551 22.6176 49.6506 22.7894 49.5793C22.9611 49.508 23.1453 49.4713 23.3312 49.4713C23.5172 49.4713 23.7013 49.508 23.8731 49.5793C24.0449 49.6506 24.201 49.7551 24.3324 49.8869C26.6791 52.2382 31.7009 53.0768 35.2834 53.0768C38.8659 53.0768 43.8877 52.2382 46.2343 49.8869C46.4998 49.6177 46.8612 49.4652 47.239 49.463C47.6167 49.4608 47.9798 49.6091 48.2485 49.8751C48.5171 50.1412 48.6693 50.5033 48.6715 50.8818C48.6737 51.2603 48.5258 51.6241 48.2602 51.8933ZM47.259 42.9349C46.1761 42.9349 45.1174 42.6131 44.217 42.0103C43.3166 41.4075 42.6148 40.5506 42.2003 39.5481C41.7859 38.5456 41.6775 37.4425 41.8887 36.3783C42.1 35.314 42.6215 34.3364 43.3873 33.5692C44.153 32.8019 45.1287 32.2794 46.1908 32.0677C47.2529 31.856 48.3539 31.9646 49.3544 32.3799C50.3549 32.7951 51.21 33.4983 51.8117 34.4005C52.4133 35.3028 52.7345 36.3635 52.7345 37.4486C52.7345 38.9036 52.1576 40.2991 51.1307 41.328C50.1039 42.3569 48.7112 42.9349 47.259 42.9349Z" fill="#6791EC"/>
</svg>
