<svg width="77" height="64" viewBox="0 0 77 64" fill="none" xmlns="http://www.w3.org/2000/svg">
<path d="M69.1786 15.8855C69.2252 16.5762 69.2252 17.2669 69.2252 17.964C69.2252 39.2045 53.4582 63.7014 24.6277 63.7014V63.6886C16.1111 63.7014 7.77141 61.1995 0.601807 56.4822C1.84019 56.635 3.08479 56.7114 4.33248 56.7145C11.3904 56.7209 18.2465 54.2922 23.799 49.82C17.0919 49.6895 11.2103 45.2046 9.15567 38.6571C11.5052 39.1218 13.9261 39.0263 16.2322 38.3801C8.91979 36.865 3.65898 30.2761 3.65898 22.624C3.65898 22.554 3.65898 22.4871 3.65898 22.4203C5.83779 23.6649 8.27732 24.3556 10.7727 24.432C3.88555 19.7115 1.7626 10.3151 5.92159 2.96862C13.8795 13.0112 25.6209 19.1163 38.2252 19.7624C36.9619 14.1794 38.6876 8.32889 42.7597 4.40418C49.0727 -1.68182 59.0015 -1.36988 64.9358 5.10127C68.4461 4.39145 71.8106 3.07048 74.8895 1.19885C73.7194 4.91984 71.2705 8.08062 67.9992 10.0891C71.106 9.71352 74.1415 8.86046 77 7.55859C74.8957 10.7926 72.2451 13.6096 69.1786 15.8855Z" fill="#6791EC"/>
</svg>
