<svg width="37" height="37" viewBox="0 0 37 37" fill="none" xmlns="http://www.w3.org/2000/svg">
<path d="M18.4911 37C28.6307 37 37 28.6307 37 18.5089C37 8.36926 28.6129 0 18.4732 0C8.35138 0 0 8.36926 0 18.5089C0 28.6307 8.36926 37 18.4911 37ZM12.0889 12.7327C11.4809 12.0174 11.6776 11.016 12.6254 10.3006C14.1455 9.08458 16.2914 8.33349 18.5268 8.33349C23.6593 8.33349 27.7187 11.767 28.6129 16.7028H30.3117C31.2238 16.7028 31.4563 17.5969 30.9377 18.3122L28.0048 22.3717C27.4683 23.1228 26.5563 23.087 26.0377 22.3717L23.087 18.3122C22.5505 17.6148 22.8009 16.7028 23.7129 16.7028H25.537C24.7144 13.7163 21.9067 11.4809 18.5268 11.4809C16.9174 11.4809 15.6834 11.9638 14.4316 12.9116C13.5911 13.4838 12.7148 13.4659 12.0889 12.7327ZM6.06235 18.6341L8.97728 14.5747C9.53166 13.8236 10.4258 13.8594 10.9444 14.5747L13.913 18.6341C14.4316 19.3316 14.1991 20.2257 13.2871 20.2257H11.5346C12.3572 23.2301 15.1648 25.4654 18.5626 25.4654C20.1721 25.4654 21.406 24.9647 22.6399 24.0348C23.4804 23.4447 24.3746 23.4625 24.9826 24.1957C25.6085 24.9111 25.4118 25.9304 24.464 26.6457C22.9439 27.8618 20.7801 28.595 18.5626 28.595C13.4302 28.595 9.37071 25.1793 8.47656 20.2257H6.67037C5.75834 20.2257 5.52586 19.3316 6.06235 18.6341Z" fill="#6791EC"/>
</svg>
